<svg width="301" height="51" viewBox="0 0 301 51" fill="none" xmlns="http://www.w3.org/2000/svg">
<path d="M226.937 46.1677L244.507 1.4088H260.808L243.237 46.1677H226.937ZM234.558 46.1677L237.416 38.8322H286.528L283.671 46.1677H234.558ZM242.073 26.8965L244.931 19.6854H290.339L287.481 26.8965H242.073ZM249.271 8.74429L252.658 1.4088H300.5L297.113 8.74429H249.271Z" fill="white"/>
<path d="M177.944 46.1677L192.656 8.74429H167.782L170.64 1.4088H236.688L233.83 8.74429H208.957L194.244 46.1677H177.944Z" fill="white"/>
<path d="M117.599 46.7894C110.896 46.7894 105.003 45.9605 99.9229 44.3028C94.8423 42.6036 90.8554 40.2413 87.9623 37.216C85.1397 34.1906 83.7285 30.7093 83.7285 26.7722C83.7285 23.1666 84.8575 19.789 87.1155 16.6393C89.3736 13.4896 92.4784 10.7336 96.43 8.37132C100.452 5.9676 105.109 4.10265 110.402 2.77646C115.694 1.40882 121.374 0.725006 127.443 0.725006C134.358 0.725006 140.391 1.5746 145.543 3.27378C150.694 4.93151 154.681 7.27307 157.503 10.2984C160.396 13.2824 161.843 16.7429 161.843 20.68C161.843 24.2856 160.678 27.6632 158.35 30.813C156.092 33.9627 152.916 36.7394 148.824 39.1431C144.802 41.5468 140.109 43.4325 134.746 44.8001C129.383 46.1263 123.668 46.7894 117.599 46.7894ZM118.658 39.2053C122.327 39.2053 125.749 38.7287 128.925 37.7755C132.171 36.8223 135.028 35.5168 137.498 33.859C139.968 32.1599 141.873 30.212 143.214 28.0155C144.625 25.7776 145.331 23.4153 145.331 20.9287C145.331 18.3592 144.555 16.142 143.002 14.277C141.45 12.3706 139.262 10.8994 136.44 9.86329C133.617 8.8272 130.265 8.30916 126.384 8.30916C122.715 8.30916 119.293 8.78576 116.117 9.73896C113.013 10.6507 110.261 11.9355 107.861 13.5932C105.462 15.2509 103.592 17.1781 102.251 19.3746C100.911 21.5711 100.24 23.9541 100.24 26.5236C100.24 29.1345 100.981 31.3932 102.463 33.2996C103.945 35.1645 106.062 36.615 108.814 37.6511C111.637 38.6872 114.918 39.2053 118.658 39.2053Z" fill="white"/>
<path d="M7.48111 29.0776L18.3445 1.4088H39.4079L56.7666 40.9459L52.2153 41.6918L68.0921 1.4088H83.969L66.3986 46.1677H45.3353L27.8707 6.63067L32.4221 5.88469L21.4436 33.6841L7.48111 29.0776Z" fill="white"/>
<path d="M6.48392 31.288L20.4464 35.8944L16.4571 46.0286L0.499993 46.0286L6.48392 31.288Z" fill="white"/>
</svg>
