<svg width="222" height="64" viewBox="0 0 222 64" fill="none" xmlns="http://www.w3.org/2000/svg">
<path d="M181.172 2.31999H221.332L216 8L211 13.52H192.772V26.08H218.052L213 31.5L207.5 37.28H192.772V50H207.5L202 55.5L196 61.2H181.172V26.08H192.772V13.52L181.172 2.31999Z" fill="white"/>
<path d="M119 2H169.977V13.2H143.5V22.68H155.657V60.88H143.5V13.2H130.297L119 2Z" fill="white"/>
<path d="M64.6031 31.84C64.6031 27.7867 65.3765 23.9467 66.9231 20.32C68.4698 16.6933 70.6032 13.4933 73.3232 10.72C76.0965 7.89333 79.2965 5.67999 82.9231 4.07999C86.5498 2.47999 90.4431 1.67999 94.6031 1.67999C98.7098 1.67999 102.576 2.47999 106.203 4.07999C109.83 5.67999 113.03 7.89333 115.803 10.72C118.63 13.4933 120.816 16.6933 122.363 20.32C123.963 23.9467 124.763 27.7867 124.763 31.84C124.763 36 123.963 39.8933 122.363 43.52C120.816 47.1467 118.63 50.3467 115.803 53.12C113.03 55.84 109.83 57.9733 106.203 59.52C102.576 61.0667 98.7098 61.84 94.6031 61.84C90.4431 61.84 86.5498 61.0667 82.9231 59.52C79.2965 57.9733 76.0965 55.84 73.3232 53.12C70.6032 50.3467 68.4698 47.1467 66.9231 43.52C65.3765 39.8933 64.6031 36 64.6031 31.84ZM76.6031 31.84C76.6031 34.4533 77.0565 36.9067 77.9632 39.2C78.9232 41.44 80.2298 43.44 81.8831 45.2C83.5898 46.9067 85.5365 48.24 87.7232 49.2C89.9632 50.16 92.3898 50.64 95.0032 50.64C97.5098 50.64 99.8298 50.16 101.963 49.2C104.15 48.24 106.043 46.9067 107.643 45.2C109.243 43.44 110.496 41.44 111.403 39.2C112.31 36.9067 112.763 34.4533 112.763 31.84C112.763 29.1733 112.283 26.6933 111.323 24.4C110.416 22.1067 109.136 20.1067 107.483 18.4C105.883 16.64 103.99 15.28 101.803 14.32C99.6165 13.36 97.2432 12.88 94.6832 12.88C92.1231 12.88 89.7498 13.36 87.5631 14.32C85.3765 15.28 83.4565 16.64 81.8032 18.4C80.1498 20.1067 78.8698 22.1067 77.9632 24.4C77.0565 26.6933 76.6031 29.1733 76.6031 31.84Z" fill="white"/>
<path d="M52.72 63.6L11.52 25.2L11.76 61.2H0V0H0.48L22 20.5L41.6 39.04L41.36 2.32H53.04V63.6H52.72Z" fill="white"/>
</svg>
